# xmcd
#
# Track frame offsets: 
#        300
#        18683
#        30766
#        47055
#        69977
#        85080
#
# Disc length: 1419 seconds
#
# Revision: 0
# Processed by: cddbd v1.5.2PL0 Copyright (c) Steve Scherf et al.
# Submitted via: ExactAudioCopy v0.95b3
#
DISCID=3f058706
DTITLE=monophone - oceans
DYEAR=2005
DGENRE=Pop
TTITLE0=Brother
TTITLE1=Another mile
TTITLE2=To you
TTITLE3=As tears fall apart
TTITLE4=I'm alive
TTITLE5=Oceans of love
EXTD=
EXTT0=
EXTT1=
EXTT2=
EXTT3=
EXTT4=
EXTT5=
PLAYORDER=
